<?xml version="1.0" encoding="UTF-8" standalone="no"?>
<!-- Created with Inkscape (http://www.inkscape.org/) -->

<svg
   width="120"
   height="120"
   viewBox="0 0 120 120"
   version="1.1"
   id="svg1"
   xmlns:inkscape="http://www.inkscape.org/namespaces/inkscape"
   xmlns:sodipodi="http://sodipodi.sourceforge.net/DTD/sodipodi-0.dtd"
   xmlns="http://www.w3.org/2000/svg"
   xmlns:svg="http://www.w3.org/2000/svg">
  <sodipodi:namedview
     id="namedview1"
     pagecolor="#505050"
     bordercolor="#ffffff"
     borderopacity="1"
     inkscape:showpageshadow="0"
     inkscape:pageopacity="0"
     inkscape:pagecheckerboard="1"
     inkscape:deskcolor="#505050"
     inkscape:document-units="px" />
  <defs
     id="defs1" />
  <g
     inkscape:label="Layer 1"
     inkscape:groupmode="layer"
     id="layer1">
    <rect
       style="fill:#000000;stroke-width:50;stroke-linecap:round;stroke-linejoin:round;paint-order:stroke fill markers"
       id="rect3"
       width="120"
       height="120"
       x="0"
       y="0" />
    <g
       id="text1"
       style="font-weight:bold;font-size:81.5966px;line-height:0.7;font-family:Arimo;-inkscape-font-specification:'Arimo Bold';letter-spacing:0px;fill:#ffffff;stroke-width:21.2491;stroke-linecap:round;stroke-linejoin:round;paint-order:stroke fill markers"
       aria-label="US&#10;UI"
       transform="matrix(1.0444898,0,0,1.0444898,5.027054,9.4436339e-6)">
      <path
         style="text-align:center;text-anchor:middle;fill:#ffffff"
         d="m 23.905237,57.771013 q -7.729365,0 -13.068206,-2.510052 Q 5.498191,52.711067 2.7490867,47.850332 -1.7631799e-5,42.949754 -1.7631799e-5,35.937546 V 0.83666376 H 11.753399 V 35.021178 q 0,6.65363 3.147526,10.119892 3.187367,3.426419 9.323049,3.426419 6.29505,0 9.681628,-3.585788 3.386578,-3.62563 3.386578,-10.358944 V 0.83666376 H 49.045597 V 35.339915 q 0,7.091892 -2.988157,12.111996 -2.948315,5.020103 -8.56605,7.689523 -5.617734,2.629579 -13.586153,2.629579 z M 105.26279,40.798282 q 0,8.247312 -6.135685,12.629943 -6.09584,4.342788 -17.928941,4.342788 -21.315519,0 -24.821623,-15.41889 l 11.354996,-1.872578 q 1.155421,4.462314 4.502157,6.494261 3.346735,1.992104 9.283207,1.992104 6.175524,0 9.243365,-1.872578 3.067841,-1.872578 3.067841,-5.617735 0,-2.390525 -1.394473,-3.944367 -1.394473,-1.553842 -3.984209,-2.589736 -1.274947,-0.517947 -3.745157,-1.115578 -2.470209,-0.637474 -6.135682,-1.394474 -4.223262,-0.996052 -6.613787,-1.673368 -2.390526,-0.717157 -3.824841,-1.354631 -1.434315,-0.677315 -2.788946,-1.474157 -2.988157,-1.792894 -4.661525,-4.781051 -1.673368,-2.988157 -1.673368,-7.450471 0,-7.6098396 5.697419,-11.6338908 5.737261,-4.063893361271 16.653995,-4.063893361271 10.438627,0 15.657941,3.267051461271 5.259156,3.2670515 6.773156,10.7972067 L 92.393792,15.61808 Q 91.517266,11.992449 88.808004,10.159713 86.138583,8.326977 81.11848,8.326977 q -5.33884,0 -8.00826,1.673368 -2.669421,1.673368 -2.669421,5.020103 0,2.191315 1.115579,3.585789 1.155421,1.394473 3.386578,2.390525 2.111631,0.95621 9.044155,2.430368 4.024051,0.876526 6.932523,1.673367 2.908473,0.757 4.661525,1.474158 1.753052,0.757 3.107683,1.593684 1.394478,0.836683 2.390528,1.792894 2.03194,1.952262 3.10768,4.661524 1.07574,2.66942 1.07574,6.175525 z"
         id="path2" />
      <path
         style="text-align:center;text-anchor:middle;fill:#ffffff"
         d="m 39.782311,114.88863 q -7.729366,0 -13.068206,-2.51005 -5.338841,-2.54989 -8.087945,-7.41063 -2.749104,-4.90057 -2.749104,-11.912782 V 57.954285 H 27.630473 V 92.1388 q 0,6.653629 3.147525,10.11989 3.187367,3.42642 9.323049,3.42642 6.295051,0 9.681629,-3.58579 3.386577,-3.625628 3.386577,-10.358941 V 57.954285 H 64.92267 v 34.503251 q 0,7.091893 -2.988156,12.111994 -2.948315,5.02011 -8.56605,7.68953 -5.617735,2.62957 -13.586153,2.62957 z M 87.114715,57.954285 V 114.09179 H 75.361298 V 57.954285 Z"
         id="path3" />
    </g>
  </g>
</svg>
