<?xml version="1.0" encoding="UTF-8" standalone="no"?>
<!-- Created with Inkscape (http://www.inkscape.org/) -->

<svg
   width="1117.125"
   height="178.96875"
   viewBox="0 0 1117.125 178.96875"
   version="1.1"
   id="svg1"
   xmlns="http://www.w3.org/2000/svg"
   xmlns:svg="http://www.w3.org/2000/svg">
  <defs
     id="defs1" />
  <g
     id="layer1">
    <g
       id="text1"
       style="font-size:192px;line-height:1.1;font-family:Arimo;-inkscape-font-specification:Arimo;letter-spacing:0px;stroke-width:50;stroke-linecap:round;stroke-linejoin:round;paint-order:stroke fill markers"
       aria-label="UserScript UI">
      <path
         style="font-weight:bold;-inkscape-font-specification:'Arimo Bold'"
         d="m 1005.75,141 q -18.1875,0 -30.75,-5.90625 -12.5625,-6 -19.03125,-17.4375 Q 949.5,106.125 949.5,89.625 V 7.03125 h 27.65625 v 80.4375 q 0,15.65625 7.40625,23.8125 7.5,8.0625 21.9375,8.0625 14.8125,0 22.7813,-8.4375 7.9687,-8.53125 7.9687,-24.375 v -79.5 h 27.6563 v 81.1875 q 0,16.6875 -7.0313,28.5 -6.9375,11.8125 -20.1562,18.09375 Q 1024.5,141 1005.75,141 Z M 1117.125,7.03125 V 139.125 h -27.6562 V 7.03125 Z"
         id="path8" />
      <path
         d="m 573.75,141 q -21.28125,0 -32.53125,-13.40625 -11.15625,-13.5 -11.15625,-39.28125 0,-25.59375 11.25,-39 11.25,-13.5 32.25,-13.5 15.5625,0 25.78125,8.0625 10.3125,8.0625 12.9375,22.21875 l -17.34375,1.3125 Q 593.625,58.96875 588.28125,54 q -5.34375,-4.96875 -15.1875,-4.96875 -13.40625,0 -19.40625,8.90625 -6,8.90625 -6,30 0,20.25 6.375,30 6.375,9.75 19.21875,9.75 9,0 15,-4.875 6.09375,-4.875 7.5,-15 l 17.0625,1.125 q -1.3125,9.75 -6.5625,16.96875 -5.15625,7.21875 -13.5,11.15625 Q 584.53125,141 573.75,141 Z m 74.34375,-54.75 v 52.875 h -16.875 V 61.3125 q 0,-5.34375 -0.1875,-11.25 -0.0937,-5.90625 -0.375,-12.375 h 15.9375 q 0.1875,4.3125 0.28125,7.78125 0.1875,3.46875 0.28125,6.09375 0.0937,2.53125 0.0937,4.3125 0.0937,1.6875 0.0937,2.53125 h 0.375 q 2.8125,-9.1875 6.1875,-14.25 3.28125,-4.6875 7.5,-6.46875 4.21875,-1.875 10.40625,-1.875 3.46875,0 6.84375,0.9375 v 15.46875 q -3.1875,-0.9375 -9,-0.9375 -10.5,0 -16.03125,9.09375 -5.53125,9 -5.53125,25.875 z M 711.5625,0 v 16.125 h -16.875 V 0 Z m 0,37.6875 V 139.125 h -16.875 V 37.6875 Z m 111.65625,50.25 q 0,26.53125 -9.375,39.84375 Q 804.5625,141 785.90625,141 q -23.4375,0 -31.5,-17.625 h -0.46875 q 0.375,0.65625 0.375,15.9375 v 39.65625 h -16.875 V 58.40625 q 0,-7.78125 -0.1875,-12.9375 -0.0937,-5.25 -0.375,-7.78125 h 16.3125 q 0.0937,0.375 0.28125,3.65625 0.28125,3.28125 0.46875,7.125 0.1875,3.75 0.1875,5.53125 h 0.375 q 4.5,-9.375 11.90625,-13.6875 7.40625,-4.40625 19.5,-4.40625 18.75,0 28.03125,12.5625 9.28125,12.5625 9.28125,39.46875 z M 805.5,88.3125 q 0,-21.1875 -5.71875,-30.28125 -5.71875,-9.09375 -18.1875,-9.09375 -13.875,0 -20.625,9.65625 -6.65625,9.5625 -6.65625,31.03125 0,19.96875 6.375,29.4375 6.375,9.46875 20.71875,9.46875 12.5625,0 18.28125,-9.1875 Q 805.5,110.0625 805.5,88.3125 Z m 77.71875,50.0625 q -8.25,2.25 -17.0625,2.25 -10.125,0 -15.1875,-5.71875 -5.0625,-5.8125 -5.0625,-17.25 V 49.96875 H 834.1875 V 37.6875 h 12.375 L 851.53125,15 h 11.25 v 22.6875 h 18.75 v 12.28125 h -18.75 V 114 q 0,7.3125 2.34375,10.3125 2.4375,2.90625 8.34375,2.90625 3.1875,0 9.75,-1.3125 z"
         id="path7"
         style="font-size:192px;line-height:1.1;font-family:Arimo;-inkscape-font-specification:Arimo;letter-spacing:0px;stroke-width:50;stroke-linecap:round;stroke-linejoin:round;paint-order:stroke fill markers" />
      <path
         style="font-weight:bold;font-size:192px;line-height:1.1;font-family:Arimo;-inkscape-font-specification:'Arimo Bold';letter-spacing:0px;stroke-width:50;stroke-linecap:round;stroke-linejoin:round;paint-order:stroke fill markers"
         d="m 514.40625,101.0625 q 0,19.40625 -14.4375,29.71875 Q 485.625,141 457.78125,141 407.625,141 399.375,104.71875 l 26.71875,-4.40625 q 2.71875,10.5 10.59375,15.28125 7.875,4.6875 21.84375,4.6875 14.53125,0 21.75,-4.40625 7.21875,-4.40625 7.21875,-13.21875 0,-5.625 -3.28125,-9.28125 -3.28125,-3.65625 -9.375,-6.09375 -3,-1.21875 -8.8125,-2.625 -5.8125,-1.5 -14.4375,-3.28125 -9.9375,-2.34375 -15.5625,-3.9375 -5.625,-1.6875 -9,-3.1875 -3.375,-1.59375 -6.5625,-3.46875 Q 413.4375,66.5625 409.5,59.53125 405.5625,52.5 405.5625,42 q 0,-17.90625 13.40625,-27.375 13.5,-9.5625 39.1875,-9.5625 24.5625,0 36.84375,7.6875 12.375,7.6875 15.9375,25.40625 L 484.125,41.8125 q -2.0625,-8.53125 -8.4375,-12.84375 -6.28125,-4.3125 -18.09375,-4.3125 -12.5625,0 -18.84375,3.9375 -6.28125,3.9375 -6.28125,11.8125 0,5.15625 2.625,8.4375 2.71875,3.28125 7.96875,5.625 4.96875,2.25 21.28125,5.71875 9.46875,2.0625 16.3125,3.9375 6.84375,1.78125 10.96875,3.46875 4.125,1.78125 7.3125,3.75 3.28125,1.96875 5.625,4.21875 4.78125,4.59375 7.3125,10.96875 2.53125,6.28125 2.53125,14.53125 z"
         id="path6" />
      <path
         d="m 216.1875,111.09375 q 0,14.34375 -10.875,22.125 Q 194.53125,141 175.03125,141 q -18.9375,0 -29.25,-6.1875 -10.21875,-6.28125 -13.3125,-19.5 l 14.90625,-2.90625 q 2.15625,8.15625 8.90625,12 6.75,3.75 18.75,3.75 12.84375,0 18.75,-3.9375 6,-3.9375 6,-11.8125 0,-6 -4.125,-9.75 -4.125,-3.75 -13.3125,-6.1875 Q 171.46875,93.5625 165,91.6875 158.625,89.8125 155.15625,88.5 151.6875,87.09375 149.625,85.875 143.4375,82.3125 139.96875,77.15625 136.5,72 136.5,64.5 q 0,-13.875 9.84375,-21.09375 9.9375,-7.3125 28.875,-7.3125 16.78125,0 26.625,5.90625 9.9375,5.90625 12.5625,18.9375 l -15.1875,1.875 Q 197.8125,56.0625 191.625,52.5 q -6.09375,-3.65625 -16.40625,-3.65625 -11.4375,0 -16.875,3.46875 -5.4375,3.46875 -5.4375,10.5 0,5.15625 3.09375,8.53125 3.09375,3.28125 11.8125,5.4375 11.71875,2.8125 22.3125,6.1875 10.59375,3.28125 15.1875,6.5625 5.34375,3.84375 8.0625,9.09375 2.8125,5.15625 2.8125,12.46875 z M 249,91.96875 q 0,17.4375 7.21875,26.90625 7.21875,9.46875 21.09375,9.46875 10.96875,0 17.53125,-4.40625 6.65625,-4.40625 9,-11.15625 L 318.65625,117 Q 309.5625,141 277.3125,141 254.8125,141 243,127.59375 231.28125,114.1875 231.28125,87.75 231.28125,62.625 243,49.21875 254.8125,35.8125 276.65625,35.8125 q 22.40625,0 33.5625,13.5 11.15625,13.5 11.15625,40.40625 v 2.25 z m 54.9375,-12.9375 Q 302.53125,63 295.78125,55.6875 q -6.75,-7.40625 -19.40625,-7.40625 -12.28125,0 -19.5,8.25 -7.125,8.15625 -7.6875,22.5 z M 360.09375,86.25 v 52.875 h -16.875 V 61.3125 q 0,-5.34375 -0.1875,-11.25 -0.0937,-5.90625 -0.375,-12.375 h 15.9375 q 0.1875,4.3125 0.28125,7.78125 0.1875,3.46875 0.28125,6.09375 0.0937,2.53125 0.0937,4.3125 0.0937,1.6875 0.0937,2.53125 h 0.375 q 2.8125,-9.1875 6.1875,-14.25 3.28125,-4.6875 7.5,-6.46875 4.21875,-1.875 10.40625,-1.875 3.46875,0 6.84375,0.9375 v 15.46875 q -3.1875,-0.9375 -9,-0.9375 -10.5,0 -16.03125,9.09375 -5.53125,9 -5.53125,25.875 z"
         id="path5"
         style="font-size:192px;line-height:1.1;font-family:Arimo;-inkscape-font-specification:Arimo;letter-spacing:0px;stroke-width:50;stroke-linecap:round;stroke-linejoin:round;paint-order:stroke fill markers" />
      <path
         style="font-weight:bold;font-size:192px;line-height:1.1;font-family:Arimo;-inkscape-font-specification:'Arimo Bold';letter-spacing:0px;stroke-width:50;stroke-linecap:round;stroke-linejoin:round;paint-order:stroke fill markers"
         d="m 56.25,141 q -18.1875,0 -30.75,-5.90625 -12.5625,-6 -19.03125,-17.4375 Q 0,106.125 0,89.625 V 7.03125 h 27.65625 v 80.4375 q 0,15.65625 7.40625,23.8125 7.5,8.0625 21.9375,8.0625 14.8125,0 22.78125,-8.4375 Q 87.75,102.375 87.75,86.53125 v -79.5 h 27.65625 v 81.1875 q 0,16.6875 -7.03125,28.5 -6.9375,11.8125 -20.15625,18.09375 Q 75,141 56.25,141 Z"
         id="path4" />
    </g>
  </g>
</svg>
